<?xml version="1.0" encoding="utf-8" ?><svg xmlns="http://www.w3.org/2000/svg" xmlns:xlink="http://www.w3.org/1999/xlink" width="1024" height="1024" viewBox="0 0 1024 1024"><path fill="#26547E" d="M370.763 58.6257C371.372 58.5714 371.981 58.5305 372.592 58.5027C381.33 58.111 389.352 60.1261 395.826 66.3076C401.207 71.5476 404.243 78.7387 404.246 86.2496C404.303 94.924 400.8 101.069 395.034 107.02C420.74 114.387 431.419 118.499 455.229 131.938C465.41 128.566 475.162 123.996 485.258 120.377C513.015 110.428 542.007 101.795 571.225 97.4307C587.816 94.9527 606.2 93.7053 622.614 97.6088C655.301 105.383 719.779 154.013 748.821 175.551C805.321 217.613 861.058 260.691 916.005 304.761C930.4 316.543 946.658 328.315 959.744 341.583C964.747 347.594 968.081 357.593 968.743 365.161C971.586 397.675 976.327 422.379 954.846 449.366C899.376 519.056 816.669 565.453 732.785 591.986C713.656 598.037 689.949 604.056 670.256 606.739C663.223 636.31 636.595 679.535 617.238 702.692C599.891 723.443 573.227 747.45 545.276 749.225C521.863 750.712 511.319 743.191 494.639 729.176C501.521 745.098 509.576 760.981 517.41 776.506C529.64 800.743 542.309 826.131 555.852 849.627L581.506 893.217C588.588 905.104 597.171 917.863 601.647 930.775C601.268 931.44 600.868 932.092 600.448 932.731C592.848 944.145 560.729 955.424 546.886 958.878C530.065 963.075 485.005 969.175 471.09 960.085C468.825 951.648 475.09 943.912 480.562 938.164C493.097 924.996 510.647 917.83 526.93 910.399C498.71 874.069 456.574 848.023 416.281 826.907C414.15 830.079 401.292 844.258 398.165 847.876L358.855 893.476C346.119 908.304 333.544 923.269 321.132 938.37C315.286 945.478 309.598 952.813 303.6 959.787C301.335 962.42 298.884 964.571 295.498 965.774C287.865 968.484 277.981 965.479 270.83 961.665C244.369 947.548 219.972 920.347 209.592 891.984C207.715 886.854 206.955 877.158 209.813 872.709C212.245 868.921 213.155 868.512 217.314 867.316C242.112 871.958 260.77 889.954 279.402 905.388C281.042 895.77 281.08 885.077 283.023 874.884C289.56 840.595 302.178 795.168 317.023 763.669C277.134 761.959 235.281 749.304 200.312 730.397C134.285 694.421 85.2952 633.639 64.1635 561.477C46.5328 502.802 49.0386 439.916 71.2819 382.83C75.9744 371.037 82.1042 359.656 88.1297 348.504C80.9878 345.77 74.0819 342.624 74.9685 333.645C88.8502 193.051 211.894 99.6228 349.254 100.028L349.062 99.6204L348.751 98.9367C339.757 79.4012 350.789 62.8682 370.763 58.6257Z"/><path fill="#FEFEFE" d="M597.683 105.714C616.27 103.449 640.995 115.598 656.346 125.162C698.248 151.269 737.759 180.462 777.041 210.254C812.657 237.02 847.886 264.297 882.719 292.074C898.422 304.58 914.539 316.786 930.015 329.507C936.195 334.587 946.835 343.474 952.167 349.39C954.751 352.307 956.539 355.84 957.359 359.649C960.637 374.755 949.966 387.901 941.079 398.777C929.644 412.769 916.853 425.481 903.39 437.507C850.371 484.781 787.884 520.209 720.094 541.43C702.207 546.892 687.786 549.94 669.566 553.792C666.5 554.284 663.351 554.885 660.284 555.429C646.821 543.647 632.201 531.867 618.396 520.415L547.337 461.473L339.429 289.11C325.946 277.977 298.077 259.053 316.263 239.616C326.534 228.64 339.447 217.806 351.155 208.301C402.841 166.156 462.948 135.561 527.438 118.57C553.267 111.622 571.299 107.884 597.683 105.714Z"/><path fill="#26547E" d="M656.165 221.162C616.588 250.101 557.167 243.512 518.653 213.952C514.116 210.124 510.018 205.642 505.665 201.629C495.728 192.468 484.733 184.517 474.208 176.063C466.168 169.605 458.004 162.967 471.172 155.897C480.642 150.813 490.649 147.184 500.653 143.319C534.189 131.509 584.476 114.401 619.727 121.653C632.619 124.306 663.372 145.846 675.493 154.041C721.935 185.92 767.431 219.155 811.924 253.701C832.415 269.194 852.768 284.867 872.981 300.72C887.966 312.438 902.967 324.226 917.008 337.038C928.963 347.94 938.076 363.877 932.895 380.397C927.753 396.794 913.228 410.351 898.342 418.301C869.238 433.844 831.049 433.497 799.88 424.61C775.659 417.703 745.008 396.412 754.106 367.419C757.899 355.318 768.914 349.376 776.966 340.783C780.558 332.134 781.117 329.158 776.16 320.914C752.075 333.587 721.951 335.354 695.698 329.701C675.652 325.385 649.902 316.538 638.305 298.495C633.149 290.574 631.38 280.918 633.393 271.684C636.527 257.802 648 248.259 659.447 240.995C659.482 233.596 658.336 228.277 656.165 221.162Z"/><path fill="#26547E" d="M659.447 240.995C686.092 226.587 714.837 219.834 744.504 228.582C763.492 234.182 786.33 250.384 795.929 267.955C808.125 290.281 794.948 308.654 776.16 320.914C752.075 333.587 721.951 335.354 695.698 329.701C675.652 325.385 649.902 316.538 638.305 298.495C633.149 290.574 631.38 280.918 633.393 271.684C636.527 257.802 648 248.259 659.447 240.995Z"/><path fill="#FEFEFE" d="M729.657 237.002C737.539 239.755 750.667 261.687 754.386 269.257C762.129 285.021 768.82 302.612 761.533 319.493C743.648 325.584 731.457 326.186 712.88 324.911C699.191 323.46 687.748 320.977 675.27 315.129C683.206 282.916 701.263 254.802 729.657 237.002Z"/><path fill="#BCDCE0" d="M714.3 232.201C717.38 231.953 722.461 232.098 725.685 232.09C696.112 252.146 677.094 278.231 669.745 313.522C666.179 311.297 663.114 309.326 659.692 306.896L659.167 306.491C643.172 293.999 636.071 275.361 650.981 258.442C667.315 239.909 690.513 233.926 714.3 232.201Z"/><path fill="#FEFEFE" d="M736.522 233.448C760.5 237.276 802.975 267.094 790.832 296.033C788.86 300.734 785.73 304.352 782.272 307.985C777.83 312.04 773.564 314.5 768.296 317.295C777.727 286.55 755.507 255.467 736.522 233.448Z"/><path fill="#BCDCE0" d="M470.82 164.387C480.865 157.66 493.149 153.868 504.452 149.778C532.042 139.792 585.243 122.196 614.5 127.923C627.021 130.373 639.572 138.487 650.319 145.234C666.545 155.423 682.007 167.059 697.682 178.08C745.659 211.814 792.106 247.384 838.587 283.137C856.391 296.832 911.063 336.382 921.303 352.128C926.226 359.698 927.575 368.398 925.661 377.177C925.095 379.771 924.318 382.273 923.449 384.779C916.487 360.235 899.842 345.656 878.512 332.766C858.055 320.404 829.09 321.467 806.942 327.643C794.45 331.183 788.225 334.769 776.966 340.783C780.558 332.134 781.117 329.158 776.16 320.914C794.948 308.654 808.125 290.281 795.929 267.955C786.33 250.384 763.492 234.182 744.504 228.582C714.837 219.834 686.092 226.587 659.447 240.995C659.482 233.596 658.336 228.277 656.165 221.162C664.374 212.017 670.706 202.486 670.309 189.644C669.476 162.707 628.963 137.364 606.103 131.619C577.772 124.499 510.339 146.413 505.532 180.82C505.119 183.775 504.921 189.15 504.876 192.356C494.273 182.56 482.035 173.545 470.82 164.387Z"/><path fill="#FEFEFE" d="M602.554 141.517C620.144 158.765 635.566 182.528 637.824 207.89C638.409 214.464 636.579 219.886 634.16 225.927C616.871 232.539 600.781 233.777 582.557 231.642C567.801 230.153 557.639 226.344 544.294 220.731C552.69 190.548 577.488 160.005 602.554 141.517Z"/><path fill="#FEFEFE" d="M853.442 334.891C854.476 335.14 854.838 335.265 855.592 336.112C876.164 359.218 886.376 384.428 888.049 415.091C866.91 423.973 853.575 424.866 830.881 423.315C817.249 422.047 807.248 419.121 794.425 414.903C800.967 381.661 824.738 352.154 853.442 334.891Z"/><path fill="#BCDCE0" d="M833.034 330.202C837.068 329.649 845.254 330.013 849.53 330.118C820.399 346.86 794.37 378.601 789.268 412.403L783.076 408.493C763.909 395.877 754.594 375.116 771.538 355.632C786.162 338.816 811.472 331.888 833.034 330.202Z"/><path fill="#BCDCE0" d="M589.492 136.733C593.18 136.526 595.286 136.675 598.99 136.958C572.478 158.025 546.148 184.159 539.843 218.82L529.829 211.465C490.928 179.937 533.852 149.405 565.543 141.036C574.133 138.768 580.595 137.526 589.492 136.733Z"/><path fill="#FEFEFE" d="M860.357 332.857C869.663 333.322 893.49 350.851 900.247 357.776C912.848 370.69 923.457 387.617 907.611 403.394C903.491 407.155 898.281 410.234 893.494 413.101C893.569 379.788 881.891 357.538 860.357 332.857Z"/><path fill="#FEFEFE" d="M609.732 139.869C614.813 140.649 620.5 143.644 625.035 146.293C643.198 156.907 669 175.197 661.995 199.754C660.45 205.169 657.095 209.762 653.549 214.079C649.608 217.769 646.651 219.859 642.053 222.62C649.489 190.334 630.526 162.61 609.732 139.869Z"/><path fill="#26547E" d="M631.95 413.588C601.471 428.547 564.271 428.726 532.369 417.831C523.214 414.705 514.197 410.729 505.986 405.589C496.328 399.543 438.773 353.754 435.661 346.829C434.627 344.528 435.245 341.672 436.098 339.428C440.451 334.9 464.691 327.233 471.884 324.647L526.349 304.874L564.043 290.836C570.972 288.231 580.433 284.22 587.468 282.51C598.679 290.178 614.815 303.975 625.878 312.958L697.391 371.435C735.971 402.998 775.669 432.919 814.447 464.225C817.115 466.379 824.065 471.664 820.733 475.294C815.888 480.572 809.158 483.736 803.22 487.642C774.017 506.309 743.464 519.746 708.519 523.497C674.087 527.193 609.472 517.847 603.83 474.807C601.252 455.141 617.851 440.385 633.396 430.558C633.46 426.638 633.59 416.882 631.95 413.588Z"/><path fill="#BCDCE0" d="M586.129 289.609L728.16 404.613L783.079 447.805C793.469 455.924 804.648 464.308 814.721 472.764C802.687 480.289 783.147 493.371 770.912 498.792C775.517 490.242 778.177 483.215 774.927 473.827C759.689 429.795 699.695 405.263 656.667 420.715C648.024 423.819 641.312 426.432 633.396 430.558C633.46 426.638 633.59 416.882 631.95 413.588C653.238 399.719 665.552 381.062 649.433 357.07C635.685 336.607 609.91 321.897 586.109 316.657C554.191 310.38 495.293 330.476 488.792 366.697C487.734 372.815 488.104 379.095 489.872 385.047C479.927 376.892 470.031 368.677 460.184 360.403C454.599 355.68 446.421 348.937 441.621 343.578C446.909 340.221 456.511 337.311 462.637 335.179C471.985 331.96 481.316 328.692 490.63 325.377C522.391 313.875 554.465 301.499 586.129 289.609Z"/><path fill="#FEFEFE" d="M586.319 325.898C604.3 336.657 629.905 392.036 616.209 412.049C602.65 418.767 578.942 418.611 563.879 417.277C550.015 415.837 539.964 412.936 527.344 407.501C537.14 379.408 562.449 343.903 586.319 325.898Z"/><path fill="#FEFEFE" d="M702.247 427.37C709.915 429.281 721.412 449.63 725.14 456.841C734.056 474.089 740.059 491.051 737.55 510.591C718.357 516.39 701.703 518.027 681.776 516.794C667.677 515.875 656.978 513.24 644.01 508.1C650.453 480.695 679.489 444.045 702.247 427.37Z"/><path fill="#BCDCE0" d="M681.329 422.704C685.791 422.072 693.641 422.772 698.311 423.113C670.172 443.925 649.107 472.88 637.968 506.058L633.324 502.463C632.589 501.909 631.86 501.348 631.137 500.779C622.591 494.052 615.242 485.325 614.104 474.167C610.593 439.728 654.794 425.617 681.329 422.704Z"/><path fill="#BCDCE0" d="M566.277 322.195C571.147 321.911 576.042 322.293 580.916 322.561C555.858 343.27 531.621 374.089 521.42 405.158L515.218 401.305C501.143 391.143 490.742 374.131 500.569 357.278C512.941 336.062 542.821 323.716 566.277 322.195Z"/><path fill="#FEFEFE" d="M709.71 425.508C738.445 433.178 785.745 467.093 758.903 500.293C754.182 504.591 749.788 506.437 743.98 508.909C744.348 474.04 733.524 450.94 709.71 425.508Z"/><path fill="#FEFEFE" d="M595.297 325.567C614.483 330.8 648.664 354.647 648.889 377.495C648.978 386.616 644.31 393.542 638.331 399.833C633.707 404.072 630.58 405.916 625.133 409.177C630.774 377.141 616.037 348.993 595.297 325.567Z"/><path fill="#26547E" d="M441.382 170.522C443.76 170.468 445.834 170.54 447.877 171.907C454.935 176.629 461.75 182.012 468.431 187.209L501 212.486L541.434 243.618C549.081 249.48 556.747 255.251 564.219 261.36C571.452 267.275 569.004 271.888 561.113 275.339C552.458 279.034 543.626 282.309 534.908 285.885C510.789 295.779 488.264 306.253 462.609 311.491C434.547 316.595 405.604 313.342 379.376 302.135C340.418 285.034 319.327 247.962 360.446 218.496C385.904 200.252 411.537 181.344 441.382 170.522Z"/><path fill="#FEFEFE" d="M444.503 216.854C450.896 220.273 458.686 229.241 463.139 234.789C473.565 247.78 483.366 265.22 483.859 282.292C483.981 286.535 482.922 294.451 482.421 298.915C459.501 305.866 451.74 306.885 428.004 306.476C410.919 304.789 404.445 303.361 388.334 297.528C402.309 262.447 417.147 242.556 444.503 216.854Z"/><path fill="#BCDCE0" d="M442.421 177.459C445.344 177.328 457.979 187.853 461.312 190.38C472.1 198.523 482.842 206.728 493.537 214.995L533.595 246.208C543.078 253.515 552.762 260.47 561.993 268.089C548.636 273.984 528.657 281.889 514.883 286.698C518.395 277.832 521.048 269.849 517.89 260.359C510.855 239.223 488.734 224.156 470.177 214.299C454.038 206.685 438.474 203.642 420.723 207.224C399.848 211.436 371.658 225.596 359.575 243.765C351.469 255.952 351.628 263.065 354.315 276.445C352.196 273.367 350.133 270.251 348.529 266.868C345.232 259.916 344.284 252.465 347.011 245.105C356.243 220.189 418.641 188.582 442.421 177.459Z"/><path fill="#BCDCE0" d="M428.27 211.663C431.004 211.198 436.634 211.246 438.251 213.896C433.763 219.226 427.491 224.8 422.587 230.13C403.584 250.789 391.962 268.278 383.59 295.297C380.907 293.867 378.809 292.503 376.263 290.853C360.408 278.972 355.984 260.163 367.953 243.774C380.052 227.207 408.645 214.753 428.27 211.663Z"/><path fill="#FEFEFE" d="M451.701 214.421C464.126 216.248 483.851 229.607 493.106 237.729C501.669 245.315 509.338 255.397 509.963 267.245C510.455 276.591 506.879 283.064 500.843 289.59C496.729 293.023 492.704 294.781 487.89 297.073C489.608 289.816 490.845 283.496 489.791 276.06C486.162 250.47 469.959 231.073 451.701 214.421Z"/><path fill="#FEFEFE" d="M98.3938 354.146C104.452 356.537 112.557 360.758 118.752 363.521C131.596 369.182 144.584 374.513 157.701 379.508C253.174 414.881 352.892 437.522 454.28 446.845C458.887 450.09 462.51 453.604 466.63 457.431C465.63 461.679 464.844 467.606 464.002 472.064C462.268 481.32 460.139 490.498 457.62 499.571C439.205 564.22 403.581 613.157 356.967 660.193C320.7 694.908 288.871 715.145 243.81 736.926C230.529 731.845 219.466 727.257 206.796 720.718C145.644 689.158 96.795 628.052 76.5734 562.367C59.3915 508.205 60.2547 449.929 79.0334 396.299C84.5585 380.973 90.8411 368.463 98.3938 354.146Z"/><path fill="#26547E" d="M293.151 458.601C334.582 456.077 335.617 558.352 294.126 574.658C281.756 575.336 273.851 566.948 269.338 556.369C259.952 534.1 260.784 507.778 269.525 485.436C274.575 472.527 280.312 464.146 293.151 458.601Z"/><path fill="#FEFEFE" d="M305.432 488.409C323.086 489.782 322.731 525.545 307.853 536.385C307.31 536.46 306.959 536.473 306.398 536.469C303.617 536.428 300.976 535.243 299.097 533.192C295.024 528.747 293.892 519.09 294.382 513.223C295.241 502.934 297.646 495.328 305.432 488.409Z"/><path fill="#26547E" d="M264.698 584.071C273.726 584.163 280.435 588.496 283.264 597.166C296.826 638.72 257.313 678.951 215.985 659.581C202.232 651.997 186.928 634.039 190.836 616.305C193.036 609.017 201.22 606.653 207.599 605.623C228.218 602.294 246.149 593.18 264.698 584.071Z"/><path fill="#FEFEFE" d="M275.34 607.452C275.824 607.905 276.204 608.652 276.285 609.307C278.178 624.967 270.898 641.265 257.327 649.576C251.211 653.322 245.831 654.675 238.909 656.136C234.174 646.048 239.508 631.91 244.485 622.864C255.3 618.732 265.293 613.136 275.34 607.452Z"/><path fill="#FEFEFE" d="M266.442 591.959C270.673 592.164 274.655 595.892 271.395 599.976C268.912 602.833 264.911 604.936 261.641 606.693C244.195 616.064 225.474 620.883 205.968 623.419L198.922 623.421C197.928 613.054 201.605 613.94 211.204 612.334C231.348 608.963 248.122 600.031 266.442 591.959Z"/><path fill="#6C9CB2" d="M233.363 626.152L233.648 626.353C234.1 627.935 231.435 634.077 231.007 637.428C230.136 644.246 230.286 648.722 230.925 655.547C221.763 653.073 219.471 652.125 211.79 646.502C205.936 641.259 204.245 638.579 200.776 631.577C212.679 630.897 221.873 628.799 233.363 626.152Z"/><path fill="#26547E" d="M144.875 448.604C156.292 450.764 162.987 458.643 166.85 469.096C176.477 495.145 172.096 543.366 142.103 554.637C138.959 554.537 135.882 553.702 133.118 552.2C110.626 540.014 112.049 492.152 120.813 472.187C126.105 460.13 131.85 451.978 144.875 448.604Z"/><path fill="#FEFEFE" d="M153.919 478.443C164.062 478.423 165.423 491.492 165.236 499.178C165.026 507.83 163.362 517.052 154.548 520.838C136.604 516.877 140.906 487.514 153.919 478.443Z"/><path fill="#BCDCE0" d="M207.253 582.885C208.574 589.131 204.837 590.688 199.251 590.137C177.482 587.991 163.791 562.856 165.833 542.728C166.327 537.857 168.762 530.914 172.853 528.224C188.8 517.737 207.348 538.21 216.097 549.678C217.514 551.545 217.129 552.502 216.744 554.552C215.548 560.908 214.732 565.778 212.253 571.837C210.771 575.46 208.563 579.413 207.253 582.885Z"/><path fill="#26547E" d="M207.253 582.885C208.574 589.131 204.837 590.688 199.251 590.137C177.482 587.991 163.791 562.856 165.833 542.728C166.327 537.857 168.762 530.914 172.853 528.224C188.8 517.737 207.348 538.21 216.097 549.678C217.514 551.545 217.129 552.502 216.744 554.552C211.837 554.735 210.285 553.331 206.273 549.589C199.461 543.235 192.608 532.545 182.147 532.577C164.392 534.898 176.071 570.329 186.378 576.693C194.798 581.892 198.694 583.184 207.253 582.885Z"/><path fill="#26547E" d="M124.596 389.084C133.774 388.407 139.966 390.238 147.722 395.57C151.68 398.29 157.615 405.663 153.129 410.481C148.741 415.194 137.82 407.96 132.118 407.954C125.726 407.946 121.199 410.586 116.43 414.833L115.894 415.318C110.65 421.181 111.161 426.42 105.378 430.255C104.235 430.989 101.697 431.529 100.534 430.744C92.7169 425.474 97.5064 411.154 101.234 405.084C106.87 395.908 114.682 391.504 124.596 389.084Z"/><path fill="#FEFEFE" d="M357.543 111.996C360.297 112.463 364.586 113.639 367.418 114.323C376.937 136.783 378.13 149.856 381.23 173.393C363.3 185.36 346.148 198.454 329.879 212.596C321.554 219.783 303.337 235.127 300.368 245.549C295.375 264.236 299.152 285.22 299.486 304.39C299.778 321.199 318.146 333.107 329.777 342.608C337.267 348.681 344.679 354.851 352.009 361.116L337.128 418.857C327.222 416.241 315.989 414.018 305.888 411.626C293.5 408.574 281.139 405.411 268.807 402.138C258.458 399.01 246.781 396.241 236.155 393.208C215.088 387.388 194.3 380.602 173.857 372.871C177.074 332.153 187.238 292.286 203.906 254.997C227.024 204.033 266.377 156.751 315.907 129.868C329.571 122.452 343.07 117.454 357.543 111.996Z"/><path fill="#BCDCE0" d="M472.686 461.616C481.359 469.719 493.231 478.745 502.655 486.389L554.394 528.501C551.988 536.163 549.766 543.195 543.602 548.567C541.496 548.847 535.766 548.927 535.091 550.239C531.813 556.608 530.228 580.15 529.889 587.184C528.788 610.09 523.398 647.439 537.193 666.52C540.615 671.254 548.096 672.72 553.458 673.149C517.313 700.521 522.805 631.994 513.926 615.28C510.997 609.767 504.767 616.715 505.37 623.545C507.265 645.025 511.114 671.605 526.954 687.182C525.18 688.562 523.821 690.331 522.228 691.93C514.074 700.111 505.018 707.521 496.745 715.544C481.283 695.007 474.509 667.906 474.76 642.574C474.792 639.263 474.586 634.434 471.872 632.205C461.69 629.36 463.725 644.685 463.911 650.048C464.672 672.009 471.183 691.383 480.897 710.767C476.186 713.816 471.371 716.7 466.46 719.414C399.655 756.774 326.211 761.32 253.401 740.803C276.273 731.061 309.822 709.608 329.592 694.496C385.288 651.923 433.462 590.058 458.014 524.09C465.41 504.216 469.849 482.475 472.686 461.616Z"/><path fill="#BCDCE0" d="M329.58 111.207C332.269 110.968 334.72 111.062 337.41 111.106C247.912 146.834 192.018 231.356 172.077 323.258C168.718 338.738 167.058 354.011 165.378 369.717C148.123 363.255 131.038 356.348 114.14 349.003C104.572 345.126 95.7045 340.364 85.8085 336.582C87.4087 326.092 88.3658 317.652 90.7041 307.051C99.2782 267.495 117.699 230.743 144.259 200.202C190.929 146.601 259.172 116.031 329.58 111.207Z"/><path fill="#6C9CB2" d="M482.841 721.951C483.563 722.741 494.937 754.139 496.549 757.996C507.64 784.538 521.207 810.123 534.639 835.538C517.454 844.174 504.057 849.383 487.134 857.201C467.292 842.459 445.297 828.022 422.421 818.501C431.8 805.15 446.92 792.324 453.411 777.117C454.599 774.334 447.985 769.219 442.991 775.045C439.916 778.633 436.359 783.181 433.376 786.959L415.113 809.976C407.746 819.78 399.836 828.682 391.954 838.001C383.307 848.224 374.961 858.253 366.008 868.216C348.771 853.114 327.089 838.92 303.962 835.745C312.019 807.672 318.542 791.191 329.424 764.499C383.465 764.416 436.477 749.714 482.841 721.951Z"/><path fill="#BCDCE0" d="M308.261 268.684C311.72 271.869 315.635 277.618 320.019 281.334C335.261 294.252 350.723 307.114 366.084 319.874C399.748 347.924 433.575 375.778 467.564 403.434L655.513 560.166C655.407 570.569 654.517 582.562 653.968 593.051C653.855 593.611 653.985 593.313 653.407 593.848C651.504 593.148 636.943 580.706 634.588 578.817L596.285 548.177C535.652 499.096 475.301 449.667 415.237 399.891L353.896 348.928C343.701 340.421 320.303 322.404 312.877 312.044C308.671 306.177 308.848 278.671 308.261 268.684Z"/><path fill="#BCDCE0" d="M959.822 386.399C961.159 388.232 961.206 396.823 961.328 399.368C962.04 413.202 957.748 428.686 949.023 439.646C880.243 526.04 769.763 579.91 662.526 597.131C661.616 597.033 662.085 597.191 661.192 596.484C660.38 591.855 661.748 567.658 661.999 561.709C757.388 547.667 854.432 496.038 922.857 428.455C936.724 414.758 947.803 401.516 959.822 386.399Z"/><path fill="#FEFEFE" d="M601.129 566.222C616.224 578.819 631.429 591.838 647.823 602.763C651.75 605.38 654.207 606.495 658.824 607.365C644.144 645.867 625.225 680.649 595.333 709.633C575.497 728.867 550.341 745.684 521.865 734.495C511.899 730.579 504.094 723.101 496.745 715.544C505.018 707.521 514.074 700.111 522.228 691.93C523.821 690.331 525.18 688.562 526.954 687.182C532.669 690.071 538.968 692.204 545.531 689.581C571.443 679.223 591.389 638.932 603.916 615.577C607.93 608.094 612.088 597.003 613.625 589.66C606.214 579.488 604.434 579.665 601.129 566.222Z"/><path fill="#FEFEFE" d="M562.814 535.174C564.098 535.826 572.576 543.24 574.271 544.658C580.264 549.588 586.311 554.451 592.411 559.246C591.042 574.076 594.816 580.622 603.064 592.265C593.302 614.416 584.476 632.015 569.656 651.065C568.243 652.732 566.759 654.338 565.209 655.877C561.853 659.207 557.327 662.998 552.319 662.806C549.681 662.705 547.505 661.309 545.848 659.323C533.09 644.031 541.442 579.145 543.649 560.131C555.142 552.234 557.428 547.846 562.814 535.174Z"/><path fill="#BCDCE0" d="M359.343 367.285C379.628 383.457 399.351 400.706 419.549 417.031C426.537 422.678 434.738 429.106 441.289 435.192C437.607 434.906 433.792 434.487 430.103 434.135C408.115 431.861 385.879 427.5 364.08 423.722C358.302 422.72 352.238 421.575 346.536 420.22C350.502 402.503 354.772 384.855 359.343 367.285Z"/><path fill="#FEFEFE" d="M294.795 871.79C313.088 874.137 330.235 882.389 345.328 892.663C338.633 901.084 330.422 910.358 323.401 918.663C318.342 924.336 313.358 930.076 308.451 935.881C302.722 929.508 296.396 922.977 290.513 916.69C290.57 902.437 292.925 885.955 294.795 871.79Z"/><path fill="#BCDCE0" d="M376.947 114.512C400.968 117.492 422.974 126.918 444.664 137.209C437.559 140.644 430.285 144.481 423.233 148.077C411.644 153.825 399.026 160.98 388.592 168.623C388.142 152.165 381.944 130.027 376.947 114.512Z"/><path fill="#FEFEFE" d="M549.554 862.528C553.437 866.614 564.637 886.866 568.167 892.882C559.895 904.444 553.176 905.779 540.268 908.494L535.859 903.48C528.049 893.763 520.876 886.461 512.302 877.467C527.507 873.509 535.922 869.777 549.554 862.528Z"/><path fill="#FEFEFE" d="M302.266 842.563C327.667 849.718 341.188 857.57 360.666 875.005C358.265 877.601 356.177 880.058 353.909 882.775C352.943 884.071 352.853 884.214 351.65 885.273C348.67 885.471 339.096 877.863 335.387 876.047C322.786 869.881 310.53 866.388 297.135 862.669C298.969 856.525 300.682 848.882 302.266 842.563Z"/><path fill="#FEFEFE" d="M372.518 68.7646C382.447 67.5686 391.488 74.5912 392.785 84.5077C394.082 94.4241 387.152 103.536 377.249 104.934C370.753 105.851 364.265 103.209 360.258 98.014C356.25 92.8194 355.342 85.8728 357.878 79.8222C360.414 73.7715 366.005 69.5492 372.518 68.7646Z"/><path fill="#FEFEFE" d="M218.773 881.88C227.248 887.541 247.448 914.538 256.402 923.459C262.452 929.487 285.944 950.431 288.99 955.882C272.543 953.559 258.014 940.385 246.587 929.104C237.861 920.49 218.497 894.223 218.773 881.88Z"/><path fill="#FEFEFE" d="M537.931 842.409C540.45 844.44 543.967 851.945 545.611 855.167C534.667 860.973 519.816 867.707 507.938 871.821C506.616 872.279 505.967 871.726 505.045 871.13L494.537 862.419C511.982 854.766 520.517 852.495 537.931 842.409Z"/><path fill="#BCDCE0" d="M571.927 900.453C575.711 904.969 580.929 915.321 583.831 920.756C573.84 926.138 567.155 929.125 556.624 933.004L554.506 933.59C552.306 932.338 549.453 921.672 545.865 916.314C559.673 911.651 561.959 911.053 571.927 900.453Z"/><path fill="#FEFEFE" d="M230.874 883.582C237.203 885.614 256.101 901.538 262.229 906.577C263.076 911.624 264.5 918.162 269.734 920.429C273.663 919.969 273.046 915.828 273.016 912.771C281.929 921.15 294.292 934.356 301.589 943.999C300.828 945.304 297.767 949.26 296.729 950.663C288.762 941.271 278.66 933.068 269.854 924.447C258.833 913.659 248.715 902.112 237.932 891.104C235.531 888.653 232.837 886.397 230.874 883.582Z"/><path fill="#FEFEFE" d="M586.581 926.494C587.647 927.035 587.27 926.855 588.039 928.007C587.963 929.205 588.145 929.371 586.976 930.182C559.58 949.199 517.895 955.469 485.622 952.605L485.03 951.751C485.52 949.949 486.937 948.515 488.148 947.031C497.466 949.069 503.26 948.893 512.667 948.515C541.065 947.374 562.221 940.217 586.581 926.494Z"/><path fill="#FEFEFE" d="M525.117 923.922C530.715 926.252 534.293 933.611 536.914 938.752C527.168 941.153 516.327 941.747 506.358 942.419C501.801 942.437 497.243 942.4 492.687 942.308C502.628 933.67 513.221 929.2 525.117 923.922Z"/><path fill="#BCDCE0" d="M540.28 918.055C542.196 920.55 548.656 934.372 545.097 936.643C543.531 936.461 544.211 936.791 543.106 935.402C540.494 928.416 538.874 926.01 533.88 920.544L540.28 918.055Z"/></svg>